<svg xmlns="http://www.w3.org/2000/svg" fill="none" viewBox="0 3 39.19 44">
<path d="M24.5536 23.1603L27.7849 17.6772L36.4947 31.2428L36.4988 33.8463L36.4704 15.9315C36.4498 15.4934 36.2172 15.0927 35.8463 14.8564L20.1654 5.83685C19.7988 5.65654 19.3334 5.65871 18.9674 5.84254C18.9179 5.86745 18.8716 5.89425 18.8272 5.92376L18.7725 5.95815L3.55158 14.7784L3.49256 14.8055C3.41648 14.8401 3.33986 14.8848 3.26757 14.9362C2.97896 15.1431 2.78728 15.4493 2.72528 15.7923C2.71607 15.8443 2.70903 15.8974 2.70605 15.951L2.72988 30.5497L10.8427 17.9756C11.8639 16.3084 14.0894 15.7709 16.1555 15.8005L18.58 15.8644L4.29369 38.7754L5.97771 39.7449L20.4351 15.8876L26.8254 15.8644L12.4054 40.3238L18.4145 43.7804L19.1326 44.193C19.4363 44.3164 19.7942 44.3227 20.1005 44.2119L36.0017 34.9969L32.9615 36.7587L24.5536 23.1603ZM25.7863 40.917L19.7171 31.3909L23.4222 25.1037L31.3931 37.6675L25.7863 40.917Z" fill="#2D374B"/>
<path d="M19.7153 31.3912L25.7848 40.9171L31.3914 37.6679L23.4204 25.104L19.7153 31.3912Z" fill="#28A0F0"/>
<path d="M36.4979 33.8467L36.4938 31.2433L27.784 17.6777L24.5527 23.1608L32.9609 36.7591L36.0011 34.9974C36.2992 34.7554 36.4798 34.3999 36.4987 34.0165L36.4979 33.8467Z" fill="#28A0F0"/>
<path d="M0 36.3021L4.29316 38.7759L18.5794 15.8648L16.1549 15.8009C14.0892 15.7717 11.8637 16.3088 10.8421 17.9761L2.72935 30.5502L0 34.7437V36.3021Z" fill="white"/>
<path d="M26.8248 15.8647L20.4344 15.888L5.97705 39.7453L11.0305 42.6547L12.4045 40.3242L26.8248 15.8647Z" fill="white"/>
<path d="M39.191 15.8316C39.1377 14.4952 38.414 13.272 37.2807 12.5596L21.3943 3.42371C20.2732 2.85921 18.8726 2.8584 17.7493 3.42344C17.6167 3.49031 2.30023 12.3734 2.30023 12.3734C2.08824 12.4749 1.8841 12.5959 1.69214 12.7335C0.680376 13.4588 0.0636245 14.5856 0 15.8235V34.7438L2.72935 30.5502L2.70553 15.9512C2.70878 15.8979 2.71555 15.8451 2.72475 15.7934C2.78648 15.4498 2.97844 15.1436 3.26705 14.9365C3.33934 14.8851 18.917 5.86771 18.9666 5.8428C19.3329 5.65896 19.798 5.6568 20.1646 5.83711L35.8455 14.8566C36.2164 15.093 36.449 15.4937 36.4695 15.9317V34.016C36.4506 34.3994 36.299 34.7549 36.0009 34.9969L32.9607 36.7586L31.392 37.6678L25.7855 40.917L20.0996 44.2119C19.7934 44.3226 19.4352 44.3164 19.1317 44.1929L12.4046 40.3238L11.0303 42.6543L17.076 46.135C17.2758 46.2487 17.4539 46.3494 17.6001 46.4317C17.8265 46.5587 17.9808 46.6434 18.0352 46.67C18.4649 46.8787 19.083 47 19.6402 47C20.1508 47 20.649 46.9063 21.1203 46.7217L37.6354 37.1577C38.5832 36.4232 39.141 35.3156 39.191 34.1159V15.8316Z" fill="#96BEDC"/>
</svg>