<svg xmlns="http://www.w3.org/2000/svg" fill="none" viewBox="0 0 31.74 49.59">
<path fill-rule="evenodd" clip-rule="evenodd" d="M14.9523 1.4605L0.77029 24.0302C0.60165 24.1684 0.486426 24.3566 0.436205 24.5619L0 25.2561L15.87 34.4401L31.74 25.2561L16.7895 1.46329C16.7456 1.35536 16.6832 1.25691 16.6063 1.17185L15.87 0L15.1322 1.1741C15.0569 1.25791 14.9957 1.35461 14.9523 1.4605ZM14.8784 5.30655L4.1418 22.3932L14.8784 17.2822V5.30655ZM14.8784 19.4793L3.41107 24.9381L14.8784 31.5743V19.4793ZM16.8622 31.5739V19.5026L28.1374 25.0489L16.8622 31.5739ZM16.8622 17.2918V5.30753L27.7616 22.6532L16.8622 17.2918ZM15.7548 37.1286L5.11335e-06 28.0112L15.87 49.5937L31.74 28.0112L15.9853 37.1285C15.9476 37.1242 15.9092 37.1219 15.8703 37.1219C15.8312 37.1219 15.7927 37.1242 15.7548 37.1286ZM14.8784 38.9134L7.22 34.4814L14.8784 44.8965V38.9134ZM16.8622 44.8957L24.52 34.4814L16.8622 38.9131V44.8957Z" fill="white"/>
</svg>