<?xml version="1.0" standalone="no"?>
<!DOCTYPE svg PUBLIC "-//W3C//DTD SVG 20010904//EN"
 "http://www.w3.org/TR/2001/REC-SVG-20010904/DTD/svg10.dtd">
<svg version="1.0" xmlns="http://www.w3.org/2000/svg"
 width="512.000000pt" height="512.000000pt" viewBox="0 0 512.000000 512.000000"
 preserveAspectRatio="xMidYMid meet">
<metadata>
Created by potrace 1.14, written by Peter Selinger 2001-2017
</metadata>
<g transform="translate(0.000000,512.000000) scale(0.100000,-0.100000)"
fill="#000000" stroke="none">
<path d="M756 5061 c-2 -3 -3 -377 -3 -831 l0 -825 381 1 c209 1 384 0 387 -2
3 -2 0 -38 -7 -81 -6 -43 -15 -103 -19 -133 -4 -30 -8 -57 -10 -60 -1 -3 -6
-30 -9 -61 -4 -31 -8 -65 -10 -75 -2 -11 -7 -41 -10 -69 -4 -27 -9 -61 -11
-75 -2 -14 -11 -74 -20 -135 -9 -60 -18 -121 -20 -135 -3 -14 -9 -59 -15 -101
-6 -41 -12 -84 -14 -95 -2 -10 -7 -39 -10 -64 -3 -25 -8 -56 -11 -70 -2 -14
-11 -74 -20 -135 -8 -60 -17 -123 -20 -140 -21 -147 -37 -256 -41 -285 -3 -19
-7 -46 -9 -60 -8 -46 -34 -224 -40 -270 -3 -25 -8 -56 -10 -70 -2 -14 -7 -45
-10 -70 -3 -25 -12 -85 -20 -135 -13 -82 -21 -137 -30 -205 -13 -89 -76 -520
-80 -540 -2 -14 -7 -47 -11 -75 -5 -27 -9 -52 -9 -55 -1 -3 -5 -35 -9 -72 -5
-37 -9 -71 -10 -75 -2 -11 3006 -12 3020 -1 8 6 9 21 4 46 -5 20 -11 55 -14
77 -9 73 -17 120 -21 140 -2 11 -20 126 -40 255 -20 129 -39 249 -42 265 -2
17 -6 41 -7 55 -3 23 -21 136 -32 200 -2 14 -9 55 -14 92 -12 83 -36 236 -55
353 -8 50 -17 108 -21 130 -3 22 -7 51 -9 65 -3 14 -7 43 -10 65 -4 22 -11 69
-16 105 -12 73 -14 85 -24 155 -4 28 -9 59 -11 70 -2 11 -11 67 -20 125 -8 58
-17 116 -19 129 -5 31 -34 218 -38 248 -2 12 -6 25 -9 29 -4 3 -171 6 -372 6
l-366 0 0 367 0 368 708 1 c389 0 714 1 723 1 15 1 16 73 15 829 l-1 827 -350
0 -350 0 -3 -281 -2 -282 -370 0 -370 0 0 282 0 282 -360 0 -360 0 0 -282 0
-282 -334 0 -334 0 -4 27 c-1 14 -3 141 -2 282 l0 255 -383 0 c-211 0 -386 -2
-387 -5z m2137 -2391 l27 0 0 -365 0 -365 -22 -1 c-13 0 -175 -1 -361 -2
l-337 -2 0 367 0 368 208 2 c114 2 263 2 332 1 69 -1 137 -3 153 -3z"/>
</g>
</svg>
