<?xml version="1.0" standalone="no"?>
<!DOCTYPE svg PUBLIC "-//W3C//DTD SVG 20010904//EN"
 "http://www.w3.org/TR/2001/REC-SVG-20010904/DTD/svg10.dtd">
<svg version="1.0" xmlns="http://www.w3.org/2000/svg"
 width="512.000000pt" height="512.000000pt" viewBox="0 0 512.000000 512.000000"
 preserveAspectRatio="xMidYMid meet">
<metadata>
Created by potrace 1.14, written by Peter Selinger 2001-2017
</metadata>
<g transform="translate(0.000000,512.000000) scale(0.100000,-0.100000)"
fill="#000000" stroke="none">
<path d="M680 4267 l0 -852 406 0 406 0 -7 -45 c-4 -25 -9 -61 -11 -80 -3 -19
-7 -46 -9 -60 -7 -40 -13 -79 -25 -166 -6 -44 -12 -90 -14 -101 -3 -11 -7 -44
-11 -73 -4 -29 -8 -60 -10 -69 -1 -9 -6 -38 -9 -66 -4 -27 -15 -106 -26 -175
-10 -69 -22 -145 -25 -170 -3 -25 -8 -56 -10 -70 -2 -14 -13 -88 -25 -165 -11
-77 -22 -155 -25 -172 -3 -18 -7 -48 -10 -65 -16 -116 -28 -196 -31 -213 -2
-11 -7 -47 -10 -80 -3 -33 -7 -62 -9 -65 -2 -3 -10 -57 -19 -120 -9 -63 -18
-124 -20 -135 -2 -11 -7 -45 -11 -75 -4 -30 -9 -64 -11 -75 -2 -11 -11 -70
-19 -132 -9 -62 -18 -121 -20 -131 -1 -10 -7 -45 -11 -77 -4 -33 -8 -62 -9
-65 -2 -7 -15 -98 -20 -135 -2 -16 -11 -77 -20 -135 -8 -57 -18 -118 -20 -135
-4 -32 -24 -164 -31 -205 -2 -14 -6 -50 -10 -80 -3 -30 -7 -59 -8 -65 -1 -7
526 -10 1564 -10 1215 0 1564 3 1563 12 -2 7 -5 27 -7 45 -4 29 -25 173 -41
283 -3 22 -8 51 -10 65 -5 28 -10 63 -20 135 -12 94 -16 120 -25 175 -5 30
-12 75 -15 100 -3 25 -10 72 -15 105 -5 33 -12 78 -15 100 -6 44 -12 84 -19
130 -3 17 -19 127 -36 245 -17 118 -33 226 -35 239 -2 13 -7 45 -11 70 -3 25
-8 57 -10 71 -3 14 -7 42 -9 62 -2 21 -6 50 -9 65 -3 15 -8 48 -11 73 -3 25
-10 70 -15 100 -5 30 -11 75 -15 100 -3 25 -10 74 -15 110 -6 36 -15 97 -20
135 -5 39 -12 79 -14 90 -2 11 -7 49 -11 85 l-7 65 -397 0 -396 0 0 375 0 375
745 0 746 0 0 852 0 853 -372 0 c-289 0 -373 -3 -376 -12 -2 -7 -3 -138 -3
-290 l1 -278 -378 0 -378 0 0 290 0 290 -375 0 -375 0 0 -290 c0 -283 0 -290
-20 -290 -11 -1 -58 -1 -105 -1 -47 0 -206 0 -355 1 l-270 0 0 290 0 290 -375
0 -375 0 0 -853z m2251 -1612 c1 -5 2 -171 2 -368 1 -230 -2 -361 -8 -366 -5
-4 -174 -7 -375 -7 l-365 1 -1 370 c0 204 0 372 2 375 5 10 744 5 745 -5z"/>
</g>
</svg>
