<svg xmlns="http://www.w3.org/2000/svg" viewBox="0 0 29 29">
<path d="M27.4368 14.3341V3.33558C27.4365 3.10424 27.3909 2.87521 27.3024 2.66157C27.2139 2.44793 27.0843 2.25387 26.9211 2.09046C26.7579 1.92705 26.5641 1.7975 26.351 1.7092C26.1379 1.6209 25.9095 1.57558 25.6789 1.57582H14.6777C14.5674 1.57545 14.4616 1.5319 14.3828 1.45446L13.0596 0.127058C13.02 0.0865439 12.9726 0.0544254 12.9203 0.0326025C12.868 0.0107797 12.8119 -0.000304269 12.7553 6.35243e-06H1.75981C1.52921 -0.000492233 1.30076 0.0445808 1.08752 0.132652C0.874278 0.220723 0.680416 0.350067 0.517002 0.5133C0.353589 0.676533 0.223824 0.870457 0.135117 1.084C0.0464095 1.29754 0.000497242 1.52652 1.31738e-06 1.75787V12.7564C-0.000137297 12.8111 0.0106642 12.8653 0.0317673 12.9158C0.0528705 12.9663 0.0838472 13.012 0.122867 13.0503L1.44603 14.3777C1.48505 14.416 1.51603 14.4617 1.53713 14.5122C1.55823 14.5627 1.56904 14.6169 1.5689 14.6716V25.6701C1.56915 25.9015 1.61481 26.1305 1.70329 26.3441C1.79177 26.5578 1.92132 26.7518 2.08456 26.9152C2.2478 27.0786 2.44152 27.2082 2.65467 27.2965C2.86782 27.3848 3.09621 27.4301 3.32682 27.4299H14.328C14.4383 27.4302 14.5441 27.4738 14.6229 27.5512L15.946 28.8786C16.0248 28.9561 16.1306 28.9996 16.2409 29H27.2402C27.4708 29.0005 27.6992 28.9554 27.9125 28.8674C28.1257 28.7793 28.3196 28.6499 28.483 28.4867C28.6464 28.3235 28.7762 28.1295 28.8649 27.916C28.9536 27.7025 28.9995 27.4735 29 27.2421V16.2436C29.0001 16.1889 28.9893 16.1347 28.9682 16.0842C28.9471 16.0337 28.9162 15.988 28.8771 15.9497L27.554 14.6223C27.4788 14.5453 27.4367 14.4418 27.4368 14.3341ZM21.3313 21.6443H7.68381C7.6009 21.6428 7.52186 21.6088 7.46358 21.5497C7.4053 21.4905 7.3724 21.4108 7.37192 21.3276V7.68568C7.37242 7.60184 7.40583 7.52158 7.46493 7.4623C7.52402 7.40302 7.60402 7.36949 7.68759 7.369H21.3313C21.4149 7.36949 21.4949 7.40302 21.554 7.4623C21.6131 7.52158 21.6465 7.60184 21.647 7.68568V21.3276C21.6465 21.4114 21.6131 21.4917 21.554 21.551C21.4949 21.6103 21.4149 21.6438 21.3313 21.6443Z"/>
</svg>