<svg xmlns="http://www.w3.org/2000/svg" fill="none" viewBox="2.98 3.98 33.92 31.35">
<g clip-path="url(#clip0_115_118)">
<path d="M35.0999 4.1001L21.8999 13.8001L24.2999 8.1001L35.0999 4.1001Z" fill="#E17726" stroke="#E17726" stroke-width="0.25" stroke-linecap="round" stroke-linejoin="round"/>
<path d="M4.7998 4.1001L17.7998 13.9001L15.4998 8.1001L4.7998 4.1001Z" fill="#E27625" stroke="#E27625" stroke-width="0.25" stroke-linecap="round" stroke-linejoin="round"/>
<path d="M30.3999 26.7002L26.8999 32.0002L34.3999 34.1002L36.4999 26.8002L30.3999 26.7002Z" fill="#E27625" stroke="#E27625" stroke-width="0.25" stroke-linecap="round" stroke-linejoin="round"/>
<path d="M3.3999 26.8002L5.4999 34.1002L12.9999 32.0002L9.4999 26.7002L3.3999 26.8002Z" fill="#E27625" stroke="#E27625" stroke-width="0.25" stroke-linecap="round" stroke-linejoin="round"/>
<path d="M12.6 17.6L10.5 20.7L17.9 21L17.7 13L12.6 17.6Z" fill="#E27625" stroke="#E27625" stroke-width="0.25" stroke-linecap="round" stroke-linejoin="round"/>
<path d="M27.2999 17.6L22.0999 13L21.8999 21.1L29.2999 20.8L27.2999 17.6Z" fill="#E27625" stroke="#E27625" stroke-width="0.25" stroke-linecap="round" stroke-linejoin="round"/>
<path d="M13 31.9998L17.5 29.7998L13.6 26.7998L13 31.9998Z" fill="#E27625" stroke="#E27625" stroke-width="0.25" stroke-linecap="round" stroke-linejoin="round"/>
<path d="M22.3999 29.7998L26.8999 31.9998L26.2999 26.7998L22.3999 29.7998Z" fill="#E27625" stroke="#E27625" stroke-width="0.25" stroke-linecap="round" stroke-linejoin="round"/>
<path d="M26.8999 31.9998L22.3999 29.7998L22.7999 32.6998V33.8998L26.8999 31.9998Z" fill="#D5BFB2" stroke="#D5BFB2" stroke-width="0.25" stroke-linecap="round" stroke-linejoin="round"/>
<path d="M13 31.9999L17.2 33.9999V32.7999L17.6 29.8999L13 31.9999Z" fill="#D5BFB2" stroke="#D5BFB2" stroke-width="0.25" stroke-linecap="round" stroke-linejoin="round"/>
<path d="M17.2 24.9001L13.5 23.8001L16.1 22.6001L17.2 24.9001Z" fill="#233447" stroke="#233447" stroke-width="0.25" stroke-linecap="round" stroke-linejoin="round"/>
<path d="M22.6001 24.9001L23.7001 22.6001L26.3001 23.8001L22.6001 24.9001Z" fill="#233447" stroke="#233447" stroke-width="0.25" stroke-linecap="round" stroke-linejoin="round"/>
<path d="M13 32.0002L13.6 26.7002L9.5 26.8002L13 32.0002Z" fill="#CC6228" stroke="#CC6228" stroke-width="0.25" stroke-linecap="round" stroke-linejoin="round"/>
<path d="M26.2002 26.7002L26.8002 32.0002L30.3002 26.8002L26.2002 26.7002Z" fill="#CC6228" stroke="#CC6228" stroke-width="0.25" stroke-linecap="round" stroke-linejoin="round"/>
<path d="M29.4 20.7998L22 21.0998L22.7 24.8998L23.8 22.5998L26.4 23.7998L29.4 20.7998Z" fill="#CC6228" stroke="#CC6228" stroke-width="0.25" stroke-linecap="round" stroke-linejoin="round"/>
<path d="M13.5 23.7998L16.1 22.5998L17.2 24.8998L17.9 21.0998L10.5 20.7998L13.5 23.7998Z" fill="#CC6228" stroke="#CC6228" stroke-width="0.25" stroke-linecap="round" stroke-linejoin="round"/>
<path d="M10.5 20.7998L13.6 26.8998L13.5 23.8998L10.5 20.7998Z" fill="#E27525" stroke="#E27525" stroke-width="0.25" stroke-linecap="round" stroke-linejoin="round"/>
<path d="M26.3998 23.8002L26.2998 26.8002L29.3998 20.7002L26.3998 23.8002Z" fill="#E27525" stroke="#E27525" stroke-width="0.25" stroke-linecap="round" stroke-linejoin="round"/>
<path d="M17.9002 21.1001L17.2002 24.9001L18.1002 29.4001L18.3002 23.5001L17.9002 21.1001Z" fill="#E27525" stroke="#E27525" stroke-width="0.25" stroke-linecap="round" stroke-linejoin="round"/>
<path d="M21.9 21.1001L21.5 23.5001L21.7 29.4001L22.6 24.9001L21.9 21.1001Z" fill="#E27525" stroke="#E27525" stroke-width="0.25" stroke-linecap="round" stroke-linejoin="round"/>
<path d="M22.6002 24.8998L21.7002 29.3998L22.3002 29.7998L26.2002 26.7998L26.3002 23.7998L22.6002 24.8998Z" fill="#F5841F" stroke="#F5841F" stroke-width="0.25" stroke-linecap="round" stroke-linejoin="round"/>
<path d="M13.5 23.7998L13.6 26.7998L17.5 29.7998L18.1 29.3998L17.2 24.8998L13.5 23.7998Z" fill="#F5841F" stroke="#F5841F" stroke-width="0.25" stroke-linecap="round" stroke-linejoin="round"/>
<path d="M22.7 34V32.8L22.4 32.5H17.4L17.1 32.8V34L13 32L14.5 33.2L17.4 35.2H22.5L25.5 33.2L26.9 32L22.7 34Z" fill="#C0AC9D" stroke="#C0AC9D" stroke-width="0.25" stroke-linecap="round" stroke-linejoin="round"/>
<path d="M22.4001 29.7999L21.8001 29.3999H18.1001L17.5001 29.7999L17.1001 32.6999L17.4001 32.3999H22.4001L22.7001 32.6999L22.4001 29.7999Z" fill="#161616" stroke="#161616" stroke-width="0.25" stroke-linecap="round" stroke-linejoin="round"/>
<path d="M35.5999 14.5001L36.6999 9.1001L34.9999 4.1001L22.3999 13.5001L27.2999 17.6001L34.1999 19.6001L35.6999 17.8001L34.9999 17.4001L36.0999 16.4001L35.2999 15.8001L36.3999 15.0001L35.5999 14.5001Z" fill="#763E1A" stroke="#763E1A" stroke-width="0.25" stroke-linecap="round" stroke-linejoin="round"/>
<path d="M3.1001 9.1001L4.2001 14.5001L3.5001 15.0001L4.6001 15.8001L3.8001 16.4001L4.9001 17.4001L4.2001 17.9001L5.7001 19.7001L12.6001 17.7001L17.5001 13.6001L4.8001 4.1001L3.1001 9.1001Z" fill="#763E1A" stroke="#763E1A" stroke-width="0.25" stroke-linecap="round" stroke-linejoin="round"/>
<path d="M34.1998 19.6001L27.2998 17.6001L29.3998 20.7001L26.2998 26.8001L30.3998 26.7001H36.4998L34.1998 19.6001Z" fill="#F5841F" stroke="#F5841F" stroke-width="0.25" stroke-linecap="round" stroke-linejoin="round"/>
<path d="M12.5999 17.6001L5.6999 19.6001L3.3999 26.7001H9.4999L13.5999 26.8001L10.4999 20.7001L12.5999 17.6001Z" fill="#F5841F" stroke="#F5841F" stroke-width="0.25" stroke-linecap="round" stroke-linejoin="round"/>
<path d="M21.8999 21.1001L22.2999 13.5001L24.2999 8.1001H15.3999L17.3999 13.5001L17.7999 21.1001L17.9999 23.5001V29.4001H21.6999V23.5001L21.8999 21.1001Z" fill="#F5841F" stroke="#F5841F" stroke-width="0.25" stroke-linecap="round" stroke-linejoin="round"/>
</g>
<defs>
<clipPath id="clip0_115_118">
<rect width="33.9" height="31.3" fill="white" transform="translate(3 4)"/>
</clipPath>
</defs>
</svg>