<svg xmlns="http://www.w3.org/2000/svg" fill="none" viewBox="0 0 43.01 26.01">
<path d="M8.80857 5.07774C15.8199 -1.69583 27.1912 -1.69583 34.2025 5.07774L35.0457 5.8875C35.4007 6.22673 35.4007 6.77386 35.0457 7.11309L32.1612 9.90349C31.9837 10.0676 31.7064 10.0676 31.5289 9.90349L30.364 8.77639C25.4716 4.04912 17.5395 4.04912 12.6471 8.77639L11.4045 9.98009C11.227 10.1442 10.9497 10.1442 10.7722 9.98009L7.87668 7.20063C7.52167 6.86141 7.52167 6.31427 7.87668 5.97504L8.80857 5.07774ZM40.1711 10.8446L42.7448 13.3286C43.0998 13.6678 43.0998 14.2149 42.7448 14.5542L31.1517 25.7486C30.7967 26.0878 30.2309 26.0878 29.887 25.7486L21.6664 17.8042C21.5777 17.7166 21.4334 17.7166 21.3447 17.8042L13.1241 25.7486C12.7691 26.0878 12.2033 26.0878 11.8594 25.7486L0.266254 14.5542C-0.0887513 14.2149 -0.0887513 13.6678 0.266254 13.3286L2.84004 10.8446C3.19505 10.5053 3.76084 10.5053 4.10475 10.8446L12.3253 18.789C12.4141 18.8766 12.5583 18.8766 12.6471 18.789L20.8676 10.8446C21.2227 10.5053 21.7884 10.5053 22.1324 10.8446L30.3529 18.789C30.4417 18.8766 30.5859 18.8766 30.6747 18.789L38.8953 10.8446C39.2503 10.5053 39.816 10.5053 40.1711 10.8446Z" fill="#3B99FC"/>
</svg>