<svg width="23" height="23" viewBox="0 0 23 23" fill="none" xmlns="http://www.w3.org/2000/svg">
<path d="M19.677 0.8305C19.677 0.610238 19.5895 0.398997 19.4338 0.243248C19.278 0.0874989 19.0668 0 18.8465 0C18.6263 0 18.415 0.0874989 18.2593 0.243248C18.1035 0.398997 18.016 0.610238 18.016 0.8305V3.3225H15.523C15.3028 3.3225 15.0915 3.41 14.9358 3.56575C14.78 3.7215 14.6925 3.93274 14.6925 4.153C14.6925 4.37326 14.78 4.5845 14.9358 4.74025C15.0915 4.896 15.3028 4.9835 15.523 4.9835H18.016V7.4765C18.016 7.69676 18.1035 7.908 18.2593 8.06375C18.415 8.2195 18.6263 8.307 18.8465 8.307C19.0668 8.307 19.278 8.2195 19.4338 8.06375C19.5895 7.908 19.677 7.69676 19.677 7.4765V4.9835H22.169C22.3893 4.9835 22.6005 4.896 22.7563 4.74025C22.912 4.5845 22.9995 4.37326 22.9995 4.153C22.9995 3.93274 22.912 3.7215 22.7563 3.56575C22.6005 3.41 22.3893 3.3225 22.169 3.3225H19.677V0.8305Z" fill="white"/>
<path d="M9.01705 4.3135H13.31C13.33 4.9935 13.471 5.6435 13.714 6.2395H8.69304C8.48204 6.2393 8.27781 6.16497 8.11605 6.0295L5.00005 3.4265V8.1655C5.00005 8.3155 4.96705 8.4625 4.90305 8.5955L2.48305 13.6455L11.462 20.4595L20.44 13.6455L18.541 9.6825C19.2002 9.7194 19.8606 9.63812 20.491 9.4425L22.441 13.5135C22.5392 13.7171 22.5648 13.9481 22.5135 14.1682C22.4622 14.3884 22.3371 14.5843 22.159 14.7235L12.005 22.4305C11.8493 22.55 11.6584 22.6148 11.462 22.6148C11.2657 22.6148 11.0748 22.55 10.919 22.4305L0.765045 14.7245C0.58698 14.5853 0.461905 14.3894 0.410605 14.1692C0.359305 13.9491 0.384867 13.7181 0.483045 13.5145L3.15405 7.9395V1.4235C3.15405 1.0535 3.35805 0.7165 3.67805 0.5555C3.99805 0.3955 4.37705 0.4405 4.65405 0.6715L9.01705 4.3135Z" fill="white"/>
<path d="M9.61504 12.0195C9.61504 11.4875 9.20204 11.0565 8.69304 11.0565C8.18304 11.0565 7.77005 11.4865 7.77005 12.0195V12.0295C7.77005 12.5605 8.18304 12.9925 8.69304 12.9925C9.20304 12.9925 9.61604 12.5605 9.61604 12.0285V12.0185L9.61504 12.0195ZM14.231 11.0555C14.741 11.0555 15.154 11.4875 15.154 12.0195V12.0295C15.154 12.5605 14.741 12.9925 14.231 12.9925C13.721 12.9925 13.308 12.5605 13.308 12.0285V12.0185C13.308 11.4875 13.721 11.0555 14.231 11.0555ZM9.61504 14.9085C9.12104 14.9085 8.71704 15.3155 8.69405 15.8255C8.68545 16.0298 8.73878 16.232 8.84704 16.4055C8.93782 16.5486 9.06569 16.6643 9.21704 16.7405L11.04 17.6915C11.1698 17.7616 11.315 17.7983 11.4625 17.7983C11.6101 17.7983 11.7553 17.7616 11.885 17.6915L13.721 16.7335C13.8378 16.6704 13.9406 16.5842 14.023 16.4801C14.1055 16.3761 14.1659 16.2564 14.2007 16.1282C14.2355 16.0001 14.2439 15.8663 14.2254 15.7348C14.2069 15.6034 14.1619 15.477 14.093 15.3635C14.024 15.2469 13.9305 15.1466 13.819 15.0695C13.6691 14.9652 13.4907 14.9093 13.308 14.9095L9.61504 14.9085Z" fill="white"/>
</svg>
