<svg xmlns="http://www.w3.org/2000/svg" viewBox="0.54 0.5 19.46 20">
<path d="M10.2708 6.5C11.3317 6.5 12.3491 6.92143 13.0993 7.67157C13.8494 8.42172 14.2708 9.43913 14.2708 10.5C14.2708 11.5609 13.8494 12.5783 13.0993 13.3284C12.3491 14.0786 11.3317 14.5 10.2708 14.5C9.20997 14.5 8.19255 14.0786 7.44241 13.3284C6.69226 12.5783 6.27084 11.5609 6.27084 10.5C6.27084 9.43913 6.69226 8.42172 7.44241 7.67157C8.19255 6.92143 9.20997 6.5 10.2708 6.5M10.2708 8.5C9.7404 8.5 9.2317 8.71071 8.85662 9.08579C8.48155 9.46086 8.27084 9.96957 8.27084 10.5C8.27084 11.0304 8.48155 11.5391 8.85662 11.9142C9.2317 12.2893 9.7404 12.5 10.2708 12.5C10.8013 12.5 11.31 12.2893 11.685 11.9142C12.0601 11.5391 12.2708 11.0304 12.2708 10.5C12.2708 9.96957 12.0601 9.46086 11.685 9.08579C11.31 8.71071 10.8013 8.5 10.2708 8.5ZM8.27084 20.5C8.02084 20.5 7.81084 20.32 7.77084 20.08L7.40084 17.43C6.77084 17.18 6.23084 16.84 5.71084 16.44L3.22084 17.45C3.00084 17.53 2.73084 17.45 2.61084 17.23L0.610835 13.77C0.480835 13.55 0.540836 13.28 0.730836 13.13L2.84084 11.47L2.77084 10.5L2.84084 9.5L0.730836 7.87C0.540836 7.72 0.480835 7.45 0.610835 7.23L2.61084 3.77C2.73084 3.55 3.00084 3.46 3.22084 3.55L5.71084 4.55C6.23084 4.16 6.77084 3.82 7.40084 3.57L7.77084 0.92C7.81084 0.68 8.02084 0.5 8.27084 0.5H12.2708C12.5208 0.5 12.7308 0.68 12.7708 0.92L13.1408 3.57C13.7708 3.82 14.3108 4.16 14.8308 4.55L17.3208 3.55C17.5408 3.46 17.8108 3.55 17.9308 3.77L19.9308 7.23C20.0608 7.45 20.0008 7.72 19.8108 7.87L17.7008 9.5L17.7708 10.5L17.7008 11.5L19.8108 13.13C20.0008 13.28 20.0608 13.55 19.9308 13.77L17.9308 17.23C17.8108 17.45 17.5408 17.54 17.3208 17.45L14.8308 16.45C14.3108 16.84 13.7708 17.18 13.1408 17.43L12.7708 20.08C12.7308 20.32 12.5208 20.5 12.2708 20.5H8.27084ZM9.52084 2.5L9.15084 5.11C7.95084 5.36 6.89084 6 6.12084 6.89L3.71084 5.85L2.96084 7.15L5.07084 8.7C4.67084 9.87 4.67084 11.14 5.07084 12.3L2.95084 13.86L3.70084 15.16L6.13084 14.12C6.90084 15 7.95084 15.64 9.14084 15.88L9.51084 18.5H11.0308L11.4008 15.89C12.5908 15.64 13.6408 15 14.4108 14.12L16.8408 15.16L17.5908 13.86L15.4708 12.31C15.8708 11.14 15.8708 9.87 15.4708 8.7L17.5808 7.15L16.8308 5.85L14.4208 6.89C13.6508 6 12.5908 5.36 11.3908 5.12L11.0208 2.5H9.52084Z" />
</svg>